<svg aria-roledescription="xychart" role="graphics-document document" viewBox="0 0 700 500" style="max-width: 700px;" xmlns="http://www.w3.org/2000/svg" width="100%" id="mermaid-mermaiddiagram-z83xqy09c"><rect width="100%" height="100%" fill="#f1f5f9"/><style>#mermaid-mermaiddiagram-z83xqy09c{font-family:arial;font-size:16px;fill:#000000;}#mermaid-mermaiddiagram-z83xqy09c .error-icon{fill:#552222;}#mermaid-mermaiddiagram-z83xqy09c .error-text{fill:#552222;stroke:#552222;}#mermaid-mermaiddiagram-z83xqy09c .edge-thickness-normal{stroke-width:1px;}#mermaid-mermaiddiagram-z83xqy09c .edge-thickness-thick{stroke-width:3.5px;}#mermaid-mermaiddiagram-z83xqy09c .edge-pattern-solid{stroke-dasharray:0;}#mermaid-mermaiddiagram-z83xqy09c .edge-thickness-invisible{stroke-width:0;fill:none;}#mermaid-mermaiddiagram-z83xqy09c .edge-pattern-dashed{stroke-dasharray:3;}#mermaid-mermaiddiagram-z83xqy09c .edge-pattern-dotted{stroke-dasharray:2;}#mermaid-mermaiddiagram-z83xqy09c .marker{fill:#000000;stroke:#000000;}#mermaid-mermaiddiagram-z83xqy09c .marker.cross{stroke:#000000;}#mermaid-mermaiddiagram-z83xqy09c svg{font-family:arial;font-size:16px;}#mermaid-mermaiddiagram-z83xqy09c p{margin:0;}#mermaid-mermaiddiagram-z83xqy09c :root{--mermaid-font-family:arial;}</style><g/><g class="main"><rect fill="#f1f5f9" class="background" height="500" width="700"/><g class="chart-title"><text transform="translate(350, 21.11111068725586) rotate(0)" text-anchor="middle" dominant-baseline="middle" font-size="20" fill="#007bff" y="0" x="0">Student Performance: Math vs English Scores</text></g><g class="plot"><g class="line-plot-0"><path stroke-width="2" stroke="#28a745" fill="none" d="M87.887,278.689L206.509,202.459L325.132,126.23L443.755,354.919L562.377,164.344L681,316.804"/></g><g class="bar-plot-1"><rect stroke-width="0" stroke="#dc3545" fill="#dc3545" height="122.12222251892092" width="36.1" y="316.8037036895752" x="69.83657379150391"/><rect stroke-width="0" stroke="#dc3545" fill="#dc3545" height="198.3518524169922" width="36.1" y="240.5740737915039" x="188.45925903320312"/><rect stroke-width="0" stroke="#dc3545" fill="#dc3545" height="274.58148231506345" width="36.1" y="164.34444389343264" x="307.08194427490236"/><rect stroke-width="0" stroke="#dc3545" fill="#dc3545" height="45.8925926208496" width="36.1" y="393.0333335876465" x="425.7046295166015"/><rect stroke-width="0" stroke="#dc3545" fill="#dc3545" height="312.69629726409914" width="36.1" y="126.22962894439695" x="544.3273147583009"/><rect stroke-width="0" stroke="#dc3545" fill="#dc3545" height="84.00740756988523" width="36.1" y="354.91851863861086" x="662.95"/></g></g><g class="bottom-axis"><g class="axis-line"><path stroke-width="2" stroke="#321b67" fill="none" d="M 68.8865737915039,439.9259262084961 L 700,439.9259262084961"/></g><g class="label"><text transform="translate(87.8865737915039, 450.9259262084961) rotate(0)" text-anchor="middle" dominant-baseline="text-before-edge" font-size="14" fill="#321b67" y="0" x="0">50</text><text transform="translate(147.19791641235352, 450.9259262084961) rotate(0)" text-anchor="middle" dominant-baseline="text-before-edge" font-size="14" fill="#321b67" y="0" x="0">55</text><text transform="translate(206.50925903320314, 450.9259262084961) rotate(0)" text-anchor="middle" dominant-baseline="text-before-edge" font-size="14" fill="#321b67" y="0" x="0">60</text><text transform="translate(265.8206016540527, 450.9259262084961) rotate(0)" text-anchor="middle" dominant-baseline="text-before-edge" font-size="14" fill="#321b67" y="0" x="0">65</text><text transform="translate(325.13194427490237, 450.9259262084961) rotate(0)" text-anchor="middle" dominant-baseline="text-before-edge" font-size="14" fill="#321b67" y="0" x="0">70</text><text transform="translate(384.44328689575195, 450.9259262084961) rotate(0)" text-anchor="middle" dominant-baseline="text-before-edge" font-size="14" fill="#321b67" y="0" x="0">75</text><text transform="translate(443.75462951660154, 450.9259262084961) rotate(0)" text-anchor="middle" dominant-baseline="text-before-edge" font-size="14" fill="#321b67" y="0" x="0">80</text><text transform="translate(503.0659721374512, 450.9259262084961) rotate(0)" text-anchor="middle" dominant-baseline="text-before-edge" font-size="14" fill="#321b67" y="0" x="0">85</text><text transform="translate(562.3773147583008, 450.9259262084961) rotate(0)" text-anchor="middle" dominant-baseline="text-before-edge" font-size="14" fill="#321b67" y="0" x="0">90</text><text transform="translate(621.6886573791504, 450.9259262084961) rotate(0)" text-anchor="middle" dominant-baseline="text-before-edge" font-size="14" fill="#321b67" y="0" x="0">95</text><text transform="translate(681, 450.9259262084961) rotate(0)" text-anchor="middle" dominant-baseline="text-before-edge" font-size="14" fill="#321b67" y="0" x="0">100</text></g><g class="ticks"><path stroke-width="2" stroke="#321b67" fill="none" d="M 87.8865737915039,440.9259262084961 L 87.8865737915039,445.9259262084961"/><path stroke-width="2" stroke="#321b67" fill="none" d="M 147.19791641235352,440.9259262084961 L 147.19791641235352,445.9259262084961"/><path stroke-width="2" stroke="#321b67" fill="none" d="M 206.50925903320314,440.9259262084961 L 206.50925903320314,445.9259262084961"/><path stroke-width="2" stroke="#321b67" fill="none" d="M 265.8206016540527,440.9259262084961 L 265.8206016540527,445.9259262084961"/><path stroke-width="2" stroke="#321b67" fill="none" d="M 325.13194427490237,440.9259262084961 L 325.13194427490237,445.9259262084961"/><path stroke-width="2" stroke="#321b67" fill="none" d="M 384.44328689575195,440.9259262084961 L 384.44328689575195,445.9259262084961"/><path stroke-width="2" stroke="#321b67" fill="none" d="M 443.75462951660154,440.9259262084961 L 443.75462951660154,445.9259262084961"/><path stroke-width="2" stroke="#321b67" fill="none" d="M 503.0659721374512,440.9259262084961 L 503.0659721374512,445.9259262084961"/><path stroke-width="2" stroke="#321b67" fill="none" d="M 562.3773147583008,440.9259262084961 L 562.3773147583008,445.9259262084961"/><path stroke-width="2" stroke="#321b67" fill="none" d="M 621.6886573791504,440.9259262084961 L 621.6886573791504,445.9259262084961"/><path stroke-width="2" stroke="#321b67" fill="none" d="M 681,440.9259262084961 L 681,445.9259262084961"/></g><g class="title"><text transform="translate(384.44328689575195, 476.481481552124) rotate(0)" text-anchor="middle" dominant-baseline="text-before-edge" font-size="16" fill="#321b67" y="0" x="0">Math Score</text></g></g><g class="left-axis"><g class="axisl-line"><path stroke-width="2" stroke="#321b67" fill="none" d="M 67.8865737915039,42.22222137451172 L 67.8865737915039,438.9259262084961"/></g><g class="label"><text transform="translate(56.886573791503906, 49.999999046325684) rotate(0)" text-anchor="end" dominant-baseline="middle" font-size="14" fill="#321b67" y="0" x="0">100</text><text transform="translate(56.886573791503906, 88.11481399536132) rotate(0)" text-anchor="end" dominant-baseline="middle" font-size="14" fill="#321b67" y="0" x="0">95</text><text transform="translate(56.886573791503906, 126.22962894439695) rotate(0)" text-anchor="end" dominant-baseline="middle" font-size="14" fill="#321b67" y="0" x="0">90</text><text transform="translate(56.886573791503906, 164.34444389343264) rotate(0)" text-anchor="end" dominant-baseline="middle" font-size="14" fill="#321b67" y="0" x="0">85</text><text transform="translate(56.886573791503906, 202.45925884246827) rotate(0)" text-anchor="end" dominant-baseline="middle" font-size="14" fill="#321b67" y="0" x="0">80</text><text transform="translate(56.886573791503906, 240.5740737915039) rotate(0)" text-anchor="end" dominant-baseline="middle" font-size="14" fill="#321b67" y="0" x="0">75</text><text transform="translate(56.886573791503906, 278.68888874053954) rotate(0)" text-anchor="end" dominant-baseline="middle" font-size="14" fill="#321b67" y="0" x="0">70</text><text transform="translate(56.886573791503906, 316.8037036895752) rotate(0)" text-anchor="end" dominant-baseline="middle" font-size="14" fill="#321b67" y="0" x="0">65</text><text transform="translate(56.886573791503906, 354.91851863861086) rotate(0)" text-anchor="end" dominant-baseline="middle" font-size="14" fill="#321b67" y="0" x="0">60</text><text transform="translate(56.886573791503906, 393.0333335876465) rotate(0)" text-anchor="end" dominant-baseline="middle" font-size="14" fill="#321b67" y="0" x="0">55</text><text transform="translate(56.886573791503906, 431.14814853668213) rotate(0)" text-anchor="end" dominant-baseline="middle" font-size="14" fill="#321b67" y="0" x="0">50</text></g><g class="ticks"><path stroke-width="2" stroke="#321b67" fill="none" d="M 66.8865737915039,49.999999046325684 L 61.886573791503906,49.999999046325684"/><path stroke-width="2" stroke="#321b67" fill="none" d="M 66.8865737915039,88.11481399536132 L 61.886573791503906,88.11481399536132"/><path stroke-width="2" stroke="#321b67" fill="none" d="M 66.8865737915039,126.22962894439695 L 61.886573791503906,126.22962894439695"/><path stroke-width="2" stroke="#321b67" fill="none" d="M 66.8865737915039,164.34444389343264 L 61.886573791503906,164.34444389343264"/><path stroke-width="2" stroke="#321b67" fill="none" d="M 66.8865737915039,202.45925884246827 L 61.886573791503906,202.45925884246827"/><path stroke-width="2" stroke="#321b67" fill="none" d="M 66.8865737915039,240.5740737915039 L 61.886573791503906,240.5740737915039"/><path stroke-width="2" stroke="#321b67" fill="none" d="M 66.8865737915039,278.68888874053954 L 61.886573791503906,278.68888874053954"/><path stroke-width="2" stroke="#321b67" fill="none" d="M 66.8865737915039,316.8037036895752 L 61.886573791503906,316.8037036895752"/><path stroke-width="2" stroke="#321b67" fill="none" d="M 66.8865737915039,354.91851863861086 L 61.886573791503906,354.91851863861086"/><path stroke-width="2" stroke="#321b67" fill="none" d="M 66.8865737915039,393.0333335876465 L 61.886573791503906,393.0333335876465"/><path stroke-width="2" stroke="#321b67" fill="none" d="M 66.8865737915039,431.14814853668213 L 61.886573791503906,431.14814853668213"/></g><g class="title"><text transform="translate(5, 240.5740737915039) rotate(270)" text-anchor="middle" dominant-baseline="text-before-edge" font-size="16" fill="#321b67" y="0" x="0">English Score</text></g></g></g><g class="mermaid-tmp-group"/></svg>